<?xml version="1.0" encoding="UTF-8" standalone="no"?>
<!DOCTYPE svg PUBLIC "-//W3C//DTD SVG 1.1//EN"
 "http://www.w3.org/Graphics/SVG/1.1/DTD/svg11.dtd">
<!-- Generated by graphviz version 9.0.0 (0)
 -->
<!-- Pages: 1 -->
<svg width="687pt" height="464pt"
 viewBox="0.00 0.00 687.01 463.82" xmlns="http://www.w3.org/2000/svg" xmlns:xlink="http://www.w3.org/1999/xlink">
<g id="graph0" class="graph" transform="scale(1 1) rotate(0) translate(4 459.82)">
<polygon fill="white" stroke="none" points="-4,4 -4,-459.82 683.01,-459.82 683.01,4 -4,4"/>
<g id="clust2" class="cluster">
<title>clusterdims_id (390)</title>
<path fill="none" stroke="black" d="M342,-8C342,-8 422,-8 422,-8 428,-8 434,-14 434,-20 434,-20 434,-94 434,-94 434,-100 428,-106 422,-106 422,-106 342,-106 342,-106 336,-106 330,-100 330,-94 330,-94 330,-20 330,-20 330,-14 336,-8 342,-8"/>
<text text-anchor="middle" x="387.38" y="-15.2" font-family="Times New Roman,serif" font-size="14.00">dims_id (390)</text>
</g>
<g id="clust4" class="cluster">
<title>clusterobs_id (390)</title>
<path fill="none" stroke="black" d="M339,-114C339,-114 425,-114 425,-114 431,-114 437,-120 437,-126 437,-126 437,-223.82 437,-223.82 437,-229.82 431,-235.82 425,-235.82 425,-235.82 339,-235.82 339,-235.82 333,-235.82 327,-229.82 327,-223.82 327,-223.82 327,-126 327,-126 327,-120 333,-114 339,-114"/>
<text text-anchor="middle" x="394.5" y="-121.2" font-family="Times New Roman,serif" font-size="14.00">obs_id (390)</text>
</g>
<g id="clust1" class="cluster">
<title>clusterobs_id (390) x train_cols (3)</title>
<path fill="none" stroke="black" d="M20,-349.82C20,-349.82 168,-349.82 168,-349.82 174,-349.82 180,-355.82 180,-361.82 180,-361.82 180,-435.82 180,-435.82 180,-441.82 174,-447.82 168,-447.82 168,-447.82 20,-447.82 20,-447.82 14,-447.82 8,-441.82 8,-435.82 8,-435.82 8,-361.82 8,-361.82 8,-355.82 14,-349.82 20,-349.82"/>
<text text-anchor="middle" x="94" y="-357.02" font-family="Times New Roman,serif" font-size="14.00">obs_id (390) x train_cols (3)</text>
</g>
<g id="clust3" class="cluster">
<title>cluster390</title>
<path fill="none" stroke="black" d="M341,-243.82C341,-243.82 423,-243.82 423,-243.82 429,-243.82 435,-249.82 435,-255.82 435,-255.82 435,-329.82 435,-329.82 435,-335.82 429,-341.82 423,-341.82 423,-341.82 341,-341.82 341,-341.82 335,-341.82 329,-335.82 329,-329.82 329,-329.82 329,-255.82 329,-255.82 329,-249.82 335,-243.82 341,-243.82"/>
<text text-anchor="middle" x="416.88" y="-251.02" font-family="Times New Roman,serif" font-size="14.00">390</text>
</g>
<!-- input -->
<g id="node1" class="node">
<title>input</title>
<path fill="lightgrey" stroke="black" d="M158.62,-439.82C158.62,-439.82 95.38,-439.82 95.38,-439.82 89.38,-439.82 83.38,-433.82 83.38,-427.82 83.38,-427.82 83.38,-394.32 83.38,-394.32 83.38,-388.32 89.38,-382.32 95.38,-382.32 95.38,-382.32 158.62,-382.32 158.62,-382.32 164.62,-382.32 170.62,-388.32 170.62,-394.32 170.62,-394.32 170.62,-427.82 170.62,-427.82 170.62,-433.82 164.62,-439.82 158.62,-439.82"/>
<text text-anchor="middle" x="127" y="-422.52" font-family="Times New Roman,serif" font-size="14.00">input</text>
<text text-anchor="middle" x="127" y="-406.02" font-family="Times New Roman,serif" font-size="14.00">~</text>
<text text-anchor="middle" x="127" y="-389.52" font-family="Times New Roman,serif" font-size="14.00">MutableData</text>
</g>
<!-- p -->
<g id="node8" class="node">
<title>p</title>
<polygon fill="none" stroke="black" points="427.12,-333.82 336.88,-333.82 336.88,-276.32 427.12,-276.32 427.12,-333.82"/>
<text text-anchor="middle" x="382" y="-316.52" font-family="Times New Roman,serif" font-size="14.00">p</text>
<text text-anchor="middle" x="382" y="-300.02" font-family="Times New Roman,serif" font-size="14.00">~</text>
<text text-anchor="middle" x="382" y="-283.52" font-family="Times New Roman,serif" font-size="14.00">Deterministic</text>
</g>
<!-- input&#45;&gt;p -->
<g id="edge5" class="edge">
<title>input&#45;&gt;p</title>
<path fill="none" stroke="black" d="M145.67,-381.83C154.72,-370.24 166.55,-357.72 180,-349.82 224.49,-323.67 282.74,-313.09 325.25,-308.85"/>
<polygon fill="black" stroke="black" points="325.38,-312.35 335.02,-307.97 324.75,-305.38 325.38,-312.35"/>
</g>
<!-- observed -->
<g id="node2" class="node">
<title>observed</title>
<path fill="lightgrey" stroke="black" d="M413.62,-98C413.62,-98 350.38,-98 350.38,-98 344.38,-98 338.38,-92 338.38,-86 338.38,-86 338.38,-52.5 338.38,-52.5 338.38,-46.5 344.38,-40.5 350.38,-40.5 350.38,-40.5 413.62,-40.5 413.62,-40.5 419.62,-40.5 425.62,-46.5 425.62,-52.5 425.62,-52.5 425.62,-86 425.62,-86 425.62,-92 419.62,-98 413.62,-98"/>
<text text-anchor="middle" x="382" y="-80.7" font-family="Times New Roman,serif" font-size="14.00">observed</text>
<text text-anchor="middle" x="382" y="-64.2" font-family="Times New Roman,serif" font-size="14.00">~</text>
<text text-anchor="middle" x="382" y="-47.7" font-family="Times New Roman,serif" font-size="14.00">MutableData</text>
</g>
<!-- beta -->
<g id="node3" class="node">
<title>beta</title>
<ellipse fill="none" stroke="black" cx="230" cy="-411.07" rx="41.01" ry="40.66"/>
<text text-anchor="middle" x="230" y="-422.52" font-family="Times New Roman,serif" font-size="14.00">beta</text>
<text text-anchor="middle" x="230" y="-406.02" font-family="Times New Roman,serif" font-size="14.00">~</text>
<text text-anchor="middle" x="230" y="-389.52" font-family="Times New Roman,serif" font-size="14.00">Normal</text>
</g>
<!-- beta&#45;&gt;p -->
<g id="edge2" class="edge">
<title>beta&#45;&gt;p</title>
<path fill="none" stroke="black" d="M252.93,-376.78C260.71,-367.19 269.98,-357.3 280,-349.82 293.87,-339.46 310.56,-330.98 326.39,-324.34"/>
<polygon fill="black" stroke="black" points="327.24,-327.77 335.22,-320.81 324.64,-321.27 327.24,-327.77"/>
</g>
<!-- beta2 -->
<g id="node4" class="node">
<title>beta2</title>
<ellipse fill="none" stroke="black" cx="330" cy="-411.07" rx="41.01" ry="40.66"/>
<text text-anchor="middle" x="330" y="-422.52" font-family="Times New Roman,serif" font-size="14.00">beta2</text>
<text text-anchor="middle" x="330" y="-406.02" font-family="Times New Roman,serif" font-size="14.00">~</text>
<text text-anchor="middle" x="330" y="-389.52" font-family="Times New Roman,serif" font-size="14.00">Normal</text>
</g>
<!-- beta2&#45;&gt;p -->
<g id="edge6" class="edge">
<title>beta2&#45;&gt;p</title>
<path fill="none" stroke="black" d="M347.9,-374.28C352.73,-364.61 357.98,-354.12 362.87,-344.32"/>
<polygon fill="black" stroke="black" points="366,-345.9 367.34,-335.39 359.73,-342.77 366,-345.9"/>
</g>
<!-- intercept -->
<g id="node5" class="node">
<title>intercept</title>
<ellipse fill="none" stroke="black" cx="434" cy="-411.07" rx="44.72" ry="40.66"/>
<text text-anchor="middle" x="434" y="-422.52" font-family="Times New Roman,serif" font-size="14.00">intercept</text>
<text text-anchor="middle" x="434" y="-406.02" font-family="Times New Roman,serif" font-size="14.00">~</text>
<text text-anchor="middle" x="434" y="-389.52" font-family="Times New Roman,serif" font-size="14.00">Normal</text>
</g>
<!-- intercept&#45;&gt;p -->
<g id="edge3" class="edge">
<title>intercept&#45;&gt;p</title>
<path fill="none" stroke="black" d="M415.81,-373.69C411.04,-364.14 405.88,-353.82 401.06,-344.18"/>
<polygon fill="black" stroke="black" points="404.28,-342.79 396.67,-335.42 398.02,-345.92 404.28,-342.79"/>
</g>
<!-- beta4 -->
<g id="node6" class="node">
<title>beta4</title>
<ellipse fill="none" stroke="black" cx="538" cy="-411.07" rx="41.01" ry="40.66"/>
<text text-anchor="middle" x="538" y="-422.52" font-family="Times New Roman,serif" font-size="14.00">beta4</text>
<text text-anchor="middle" x="538" y="-406.02" font-family="Times New Roman,serif" font-size="14.00">~</text>
<text text-anchor="middle" x="538" y="-389.52" font-family="Times New Roman,serif" font-size="14.00">Normal</text>
</g>
<!-- beta4&#45;&gt;p -->
<g id="edge4" class="edge">
<title>beta4&#45;&gt;p</title>
<path fill="none" stroke="black" d="M515.38,-377.01C507.56,-367.31 498.18,-357.31 488,-349.82 473.07,-338.82 454.96,-330.03 437.97,-323.3"/>
<polygon fill="black" stroke="black" points="439.59,-320.17 429,-319.91 437.11,-326.72 439.59,-320.17"/>
</g>
<!-- beta3 -->
<g id="node7" class="node">
<title>beta3</title>
<ellipse fill="none" stroke="black" cx="638" cy="-411.07" rx="41.01" ry="40.66"/>
<text text-anchor="middle" x="638" y="-422.52" font-family="Times New Roman,serif" font-size="14.00">beta3</text>
<text text-anchor="middle" x="638" y="-406.02" font-family="Times New Roman,serif" font-size="14.00">~</text>
<text text-anchor="middle" x="638" y="-389.52" font-family="Times New Roman,serif" font-size="14.00">Normal</text>
</g>
<!-- beta3&#45;&gt;p -->
<g id="edge7" class="edge">
<title>beta3&#45;&gt;p</title>
<path fill="none" stroke="black" d="M616.41,-376.16C608.58,-366.31 598.93,-356.43 588,-349.82 542.47,-322.3 482.15,-311.93 438.56,-308.1"/>
<polygon fill="black" stroke="black" points="439.05,-304.63 428.81,-307.34 438.51,-311.61 439.05,-304.63"/>
</g>
<!-- out -->
<g id="node9" class="node">
<title>out</title>
<ellipse fill="lightgrey" stroke="black" cx="382" cy="-187.16" rx="47.38" ry="40.66"/>
<text text-anchor="middle" x="382" y="-198.61" font-family="Times New Roman,serif" font-size="14.00">out</text>
<text text-anchor="middle" x="382" y="-182.11" font-family="Times New Roman,serif" font-size="14.00">~</text>
<text text-anchor="middle" x="382" y="-165.61" font-family="Times New Roman,serif" font-size="14.00">Bernoulli</text>
</g>
<!-- p&#45;&gt;out -->
<g id="edge8" class="edge">
<title>p&#45;&gt;out</title>
<path fill="none" stroke="black" d="M382,-276.01C382,-265.03 382,-252.08 382,-239.55"/>
<polygon fill="black" stroke="black" points="385.5,-239.74 382,-229.74 378.5,-239.74 385.5,-239.74"/>
</g>
<!-- out&#45;&gt;observed -->
<g id="edge1" class="edge">
<title>out&#45;&gt;observed</title>
<path fill="none" stroke="black" d="M382,-146.27C382,-134.38 382,-121.37 382,-109.53"/>
<polygon fill="black" stroke="black" points="385.5,-109.67 382,-99.67 378.5,-109.67 385.5,-109.67"/>
</g>
</g>
</svg>
